<svg xmlns="http://www.w3.org/2000/svg" xmlns:xlink="http://www.w3.org/1999/xlink" width="500" zoomAndPan="magnify" viewBox="0 0 375 374.999991" height="500" preserveAspectRatio="xMidYMid meet" version="1.0"><defs><clipPath id="32f520a7ac"><path d="M 14.578125 201 L 46 201 L 46 237 L 14.578125 237 Z M 14.578125 201 " clip-rule="nonzero"/></clipPath><clipPath id="54f883ca57"><path d="M 330 18 L 360.328125 18 L 360.328125 51 L 330 51 Z M 330 18 " clip-rule="nonzero"/></clipPath><clipPath id="155b3e5112"><path d="M 14.578125 254 L 46 254 L 46 287 L 14.578125 287 Z M 14.578125 254 " clip-rule="nonzero"/></clipPath><clipPath id="984139cdb1"><path d="M 14.578125 149 L 46 149 L 46 184 L 14.578125 184 Z M 14.578125 149 " clip-rule="nonzero"/></clipPath></defs><path fill="#228b3c" d="M 287.34375 236.0625 C 287.34375 281.460938 287.355469 326.859375 287.382812 372.257812 C 287.382812 374.054688 287.007812 374.644531 285.085938 374.632812 C 271.328125 374.558594 257.566406 374.570312 243.804688 374.667969 C 241.78125 374.667969 240.851562 373.976562 240.226562 372.03125 C 239.273438 368.953125 238.507812 365.832031 237.925781 362.660156 C 237.878906 362.324219 237.785156 362.003906 237.648438 361.691406 C 234.050781 354.617188 232.933594 347.050781 233.09375 339.203125 C 233.191406 334.484375 233.09375 329.757812 233.121094 325.035156 C 233.121094 324.3125 232.921875 323.511719 233.433594 322.878906 C 235.128906 320.769531 234.960938 318.296875 235.105469 315.789062 C 235.386719 311.074219 236.589844 306.5 238.207031 302.058594 C 239.917969 297.234375 240.996094 292.277344 241.445312 287.179688 C 242.253906 278.863281 243.71875 270.523438 247.832031 262.972656 C 248.71875 261.464844 249.035156 259.847656 248.789062 258.117188 C 248.367188 255.546875 247.535156 254.964844 244.988281 254.152344 C 241.726562 253.113281 238.449219 253.546875 235.175781 253.472656 C 232.410156 253.414062 231.054688 254.734375 231.203125 257.578125 C 231.609375 264.925781 231.3125 272.277344 231.503906 279.621094 C 231.628906 284.375 230.738281 288.96875 230.078125 293.621094 C 229.738281 296.011719 229.722656 298.453125 229.621094 300.875 C 229.585938 302.023438 229.410156 303.152344 229.082031 304.253906 C 227.832031 308.304688 227.136719 312.496094 226.40625 316.675781 C 226.113281 318.203125 225.605469 319.660156 224.886719 321.039062 C 223.738281 323.332031 223.625 325.664062 224 328.121094 C 224.441406 330.558594 224.25 332.949219 223.425781 335.285156 C 220.648438 342.710938 219.746094 350.519531 218.414062 358.265625 C 217.570312 363.191406 217.886719 368.066406 217.789062 372.96875 C 217.757812 374.351562 217.425781 374.8125 215.984375 374.808594 C 205.191406 374.765625 194.398438 374.773438 183.605469 374.835938 C 182.324219 374.835938 181.703125 374.3125 181.179688 373.214844 C 178.417969 367.496094 177.097656 361.476562 176.640625 355.148438 C 176.308594 350.523438 175.214844 345.914062 175.949219 341.28125 C 176.503906 337.789062 176.414062 334.300781 176.542969 330.808594 C 177 318.488281 174.886719 306.574219 171.246094 294.851562 C 169.386719 288.875 167.167969 283.042969 165.113281 277.140625 C 164.042969 274.046875 163.496094 270.761719 162.746094 267.554688 C 162.070312 264.664062 161.695312 264.128906 158.75 264.027344 C 154.039062 263.863281 149.316406 263.910156 144.585938 263.96875 C 142.710938 263.992188 142.199219 265.011719 142.894531 266.859375 C 144.144531 270.1875 145.699219 273.417969 146.285156 276.980469 C 147.582031 284.878906 149.324219 292.6875 150.96875 300.519531 C 151.921875 305.054688 152.308594 309.691406 153.398438 314.222656 C 154.382812 318.351562 156.011719 322.171875 158.636719 325.429688 C 163.007812 330.84375 164.554688 337.414062 166.769531 343.746094 C 168.914062 349.871094 169.664062 356.296875 171.222656 362.558594 C 172.121094 366.226562 169.734375 372.277344 166.707031 374.359375 C 166.054688 374.753906 165.347656 374.917969 164.589844 374.847656 C 131.128906 374.847656 97.679688 374.871094 64.242188 374.914062 C 61.957031 374.914062 62.378906 373.609375 62.378906 372.320312 C 62.378906 324.625 62.378906 276.933594 62.378906 229.246094 C 62.378906 193.5625 62.390625 157.878906 62.410156 122.195312 C 62.410156 119.585938 62.410156 119.652344 59.890625 120.429688 C 56.6875 121.410156 53.53125 122.703125 50.0625 122.300781 C 49.59375 122.304688 49.128906 122.253906 48.671875 122.148438 C 47.492188 121.699219 46.058594 121.410156 45.730469 119.96875 C 45.402344 118.527344 46.433594 117.710938 47.449219 116.820312 C 50.601562 114.015625 54.089844 111.675781 57.078125 108.578125 C 61.632812 103.890625 64.363281 98.300781 66.84375 92.488281 C 68.667969 88.226562 70.605469 84.015625 72.195312 79.652344 C 73.65625 75.632812 76.710938 73.40625 80.753906 72.125 C 87.878906 69.871094 95.214844 70.050781 102.402344 70.679688 C 112.691406 71.578125 120.242188 77.15625 124.929688 86.46875 C 126.550781 89.648438 128.25 92.769531 129.90625 95.917969 C 130.40625 96.875 131.230469 97.1875 132.25 97.1875 C 140.207031 97.1875 148.171875 97.363281 156.128906 97.105469 C 159.535156 96.992188 162.761719 95.433594 165.917969 94.113281 C 171.742188 91.683594 177.359375 88.660156 183.324219 86.65625 C 192.933594 83.417969 202.75 81.234375 213.066406 83.253906 C 216.304688 83.886719 219.5625 84.292969 222.78125 84.984375 C 223.703125 85.164062 224.566406 85.496094 225.375 85.976562 C 231.378906 89.5625 237.398438 93.117188 243.402344 96.691406 C 244.488281 97.292969 245.652344 97.5625 246.890625 97.5 C 259.574219 97.480469 272.25 97.535156 284.9375 97.441406 C 286.867188 97.441406 287.367188 97.886719 287.367188 99.867188 C 287.308594 145.265625 287.292969 190.664062 287.320312 236.058594 Z M 136.988281 224.8125 C 134.449219 224.511719 133.050781 223.152344 131.726562 221.925781 C 126.253906 216.875 122.011719 211.066406 120.304688 203.589844 C 119.132812 198.414062 117.472656 193.328125 116.921875 188.046875 C 116.113281 180.1875 116.628906 172.28125 116.628906 164.390625 C 116.628906 159.6875 117.441406 155.046875 118.042969 150.382812 C 118.636719 145.929688 119.050781 141.449219 119.835938 137.023438 C 120.398438 133.84375 121.160156 130.675781 121.417969 127.472656 C 122.066406 119.34375 122.417969 111.207031 122.335938 103.042969 C 122.304688 99.773438 121.613281 96.636719 121.222656 93.441406 C 120.765625 89.648438 118.46875 86.675781 116.300781 83.863281 C 113.605469 80.363281 110.636719 76.917969 105.5 76.707031 C 99.582031 76.460938 93.867188 76.824219 89.164062 80.949219 C 85.5 84.15625 82.496094 88 79.613281 91.882812 C 76.246094 96.421875 73.136719 101.160156 68.703125 104.785156 C 66.183594 106.839844 63.542969 108.679688 60.269531 109.308594 C 59.792969 109.371094 59.355469 109.535156 58.957031 109.800781 C 58.554688 110.066406 58.234375 110.40625 57.992188 110.820312 C 57.371094 111.941406 56.699219 113.191406 57.382812 114.441406 C 57.996094 115.554688 59.28125 115.203125 60.335938 115.285156 C 62.171875 115.363281 63.949219 115.074219 65.667969 114.414062 C 70.824219 112.65625 75.988281 110.933594 81.164062 109.242188 C 85.210938 107.917969 89.855469 110.015625 91.953125 113.714844 C 94.59375 118.371094 95.660156 123.320312 95.523438 128.621094 C 95.351562 135.019531 95.058594 141.410156 94.769531 147.800781 C 94.421875 155.546875 94.449219 163.3125 94.445312 171.0625 C 94.445312 181.246094 93.789062 191.445312 94.765625 201.597656 C 95.238281 207.023438 96.019531 212.40625 97.105469 217.742188 C 98.347656 223.394531 99.996094 228.929688 102.054688 234.339844 C 103.558594 238.355469 105.816406 242.03125 107.5625 245.9375 C 109.585938 250.445312 108.460938 249.640625 113.3125 249.71875 C 113.445312 249.71875 113.578125 249.71875 113.714844 249.71875 C 114.675781 249.761719 114.75 249.316406 114.308594 248.617188 C 113.632812 247.539062 112.800781 246.523438 112.285156 245.378906 C 108.375 236.71875 105.808594 227.714844 105.617188 218.140625 C 105.550781 214.902344 105.726562 211.664062 105.46875 208.425781 C 105.0625 203.515625 106.25 198.410156 103.800781 193.722656 C 103.625 193.394531 103.707031 192.914062 103.679688 192.527344 C 103.582031 191.011719 104.421875 191.050781 105.492188 191.425781 C 106.132812 191.652344 106.421875 192.195312 106.707031 192.71875 C 108.324219 195.539062 109.433594 198.546875 110.035156 201.742188 C 111.308594 208.660156 111.824219 215.675781 113.878906 222.519531 C 115.636719 228.398438 118.710938 233.371094 122.328125 237.953125 C 128.984375 246.390625 138.761719 249.878906 148.667969 252.585938 C 156.828125 254.820312 165.292969 253.664062 173.625 253.574219 C 179.476562 253.507812 185.300781 252.765625 191.097656 251.953125 C 196.410156 251.1875 201.722656 250.449219 207.03125 249.679688 C 212.109375 248.941406 217.007812 247.410156 222.007812 246.378906 C 225.324219 245.695312 226.460938 244.578125 226.597656 241.175781 C 226.699219 239.625 227.054688 238.132812 227.660156 236.699219 C 228.46875 234.585938 229.90625 233.332031 232.351562 233.222656 C 234.792969 233.113281 236.421875 234.074219 237.359375 236.367188 C 238.503906 239.117188 240.011719 241.65625 241.878906 243.980469 C 244.566406 247.382812 247.742188 249.351562 252.441406 248.984375 C 257.003906 248.621094 260.089844 244.390625 260.511719 241.363281 C 261.011719 237.730469 261.019531 234.097656 260.53125 230.464844 C 259.476562 222.691406 256.375 215.617188 252.03125 209.09375 C 249.804688 205.753906 247.582031 202.417969 245.3125 199.039062 C 246.460938 198.472656 247.296875 199.074219 248.1875 199.28125 C 251.527344 200.050781 253.664062 202.492188 255.996094 204.71875 C 258.527344 207.101562 260.726562 209.761719 262.59375 212.695312 C 264.464844 215.628906 265.941406 218.746094 267.03125 222.046875 C 267.648438 223.929688 268.652344 225.183594 270.503906 226.503906 C 270.503906 221.933594 270.558594 217.703125 270.472656 213.484375 C 270.449219 212.292969 270.578125 211.054688 270.066406 209.886719 C 268.042969 205.277344 266.425781 200.46875 263.589844 196.253906 C 261.3125 192.871094 259.738281 188.964844 256.304688 186.425781 C 255.902344 186.125 255.628906 185.691406 255.902344 185.210938 C 256.242188 184.546875 256.78125 185.027344 257.117188 185.210938 C 259.027344 186.167969 261.164062 186.734375 262.757812 188.257812 C 265.832031 191.191406 268.828125 194.207031 271.117188 197.824219 C 273.777344 202.03125 276.328125 206.304688 276.925781 211.417969 C 277.070312 212.21875 277.351562 212.96875 277.761719 213.667969 C 278.273438 214.667969 279.324219 214.550781 280.230469 214.660156 C 280.332031 214.679688 280.433594 214.671875 280.535156 214.640625 C 280.636719 214.609375 280.722656 214.554688 280.796875 214.480469 C 280.867188 214.40625 280.917969 214.316406 280.949219 214.21875 C 280.976562 214.117188 280.980469 214.015625 280.960938 213.910156 C 280.582031 209.835938 281.390625 205.707031 280.300781 201.648438 C 278.863281 196.316406 277.230469 191.054688 275.007812 186 C 273.355469 182.230469 271.464844 178.617188 267.824219 176.28125 C 266.089844 175.148438 264.648438 173.722656 263.496094 172 C 263.203125 171.566406 262.730469 171.214844 263.089844 170.574219 C 263.449219 169.933594 263.984375 170.078125 264.507812 170.054688 C 266.53125 169.953125 268.148438 170.902344 269.691406 171.988281 C 270.855469 172.796875 272.011719 173.605469 273.398438 173.992188 C 274.03125 174.164062 274.726562 174.261719 274.699219 173.332031 C 274.617188 170.539062 275.558594 167.621094 274.101562 164.980469 C 269.703125 157 266.109375 148.636719 260.644531 141.164062 C 253.707031 131.671875 246.574219 122.421875 238.113281 114.261719 C 234.167969 110.453125 230.597656 106.25 225.730469 103.367188 C 221.863281 101.039062 217.789062 99.15625 213.511719 97.722656 C 209.230469 96.289062 204.84375 95.335938 200.355469 94.863281 C 191.394531 93.933594 182.484375 94.242188 173.707031 96.667969 C 169.160156 97.925781 164.492188 99 160.292969 101.019531 C 154.683594 103.714844 149.367188 107.015625 144.105469 110.460938 C 136.308594 115.585938 131.597656 122.503906 129.585938 131.605469 C 127.804688 139.660156 126.941406 147.796875 126.347656 155.988281 C 125.625 165.785156 125.183594 175.605469 124.699219 185.417969 C 124.246094 194.671875 125.511719 203.664062 129.078125 212.28125 C 130.699219 216.195312 132.007812 220.277344 135.710938 222.894531 C 136.128906 223.226562 136.351562 223.867188 136.988281 224.8125 Z M 136.988281 224.8125 " fill-opacity="1" fill-rule="nonzero"/><path fill="#228b3c" d="M 277.457031 25.429688 C 278.117188 42.328125 266.480469 59.066406 250.429688 65.210938 C 243.074219 68.042969 235.476562 68.65625 228.25 65.253906 C 217.273438 60.089844 211.359375 49.539062 213.382812 36.917969 C 214.953125 27.121094 219.027344 18.5625 226.234375 11.679688 C 234.304688 3.988281 243.871094 -0.800781 255.167969 0.261719 C 266.195312 1.304688 274.285156 6.617188 277.390625 19.1875 C 277.875 21.15625 277.457031 23.34375 277.457031 25.429688 Z M 252.601562 34.429688 C 252.601562 32.226562 252.710938 30.597656 252.578125 28.988281 C 252.289062 25.417969 251.703125 21.882812 249.722656 18.804688 C 247.65625 15.609375 244.367188 15.421875 241.792969 18.1875 C 240.546875 19.511719 240.019531 21.175781 239.574219 22.882812 C 237.996094 29.121094 238.128906 35.457031 238.839844 41.777344 C 239.1875 44.828125 240.003906 47.890625 242.515625 50.09375 C 244.480469 51.8125 247.046875 51.714844 248.816406 49.777344 C 249.695312 48.832031 250.355469 47.753906 250.796875 46.539062 C 252.238281 42.628906 252.839844 38.59375 252.601562 34.429688 Z M 252.601562 34.429688 " fill-opacity="1" fill-rule="nonzero"/><path fill="#228b3c" d="M 129.347656 1.699219 C 133.730469 1.699219 138.121094 1.5625 142.496094 1.746094 C 145.90625 1.886719 149.144531 0.742188 152.539062 0.835938 C 156.089844 0.9375 158.074219 2.457031 158.507812 5.988281 C 158.78125 8.28125 158.710938 10.5625 158.296875 12.835938 C 157.882812 15.109375 157.144531 17.269531 156.082031 19.320312 C 153.898438 23.667969 148.84375 23.878906 146.367188 20.449219 C 145.464844 19.207031 144.375 18.101562 143.570312 16.765625 C 143.238281 16.160156 142.789062 15.664062 142.226562 15.269531 C 141.660156 14.878906 141.035156 14.628906 140.355469 14.53125 C 137.9375 14.238281 135.519531 14.214844 133.097656 14.46875 C 131.410156 14.617188 130.621094 15.800781 130.433594 17.300781 C 130.078125 20.046875 129.433594 22.726562 128.867188 25.429688 C 128.722656 26.109375 128.304688 27.050781 129.121094 27.457031 C 129.9375 27.859375 130.960938 27.59375 131.746094 26.917969 C 132.738281 26.0625 132.882812 24.800781 133.324219 23.679688 C 134.25 21.359375 135.433594 19.335938 137.9375 18.386719 C 140.769531 17.324219 143.882812 19.195312 144.0625 22.222656 C 144.566406 30.464844 142.382812 38.089844 138.351562 45.191406 C 137.167969 47.285156 135.292969 48.757812 132.585938 48.605469 C 130.390625 48.480469 128.972656 47.109375 128.941406 44.867188 C 128.921875 43.652344 129.042969 42.4375 129.113281 41.222656 C 129.164062 40.363281 129.113281 39.511719 128.023438 39.410156 C 127.136719 39.324219 126.140625 39.433594 125.851562 40.457031 C 124.8125 44.097656 123.828125 47.71875 123.828125 51.539062 C 123.828125 52.78125 124.550781 53.34375 125.726562 53.449219 C 132.199219 54.011719 137.933594 52.777344 141.867188 46.972656 C 142.855469 45.5 144.082031 44.261719 145.550781 43.265625 C 147.492188 41.949219 149.769531 41.726562 151.398438 42.832031 C 153.324219 44.136719 154.003906 45.964844 153.632812 48.265625 C 153.144531 51.300781 151.972656 54.101562 150.636719 56.804688 C 149.019531 60.046875 147.171875 63.175781 144.410156 65.667969 C 142.464844 67.429688 140.429688 67.976562 137.769531 67.542969 C 134.332031 66.980469 130.890625 66.355469 127.355469 66.363281 C 117.914062 66.394531 108.464844 66.226562 99.023438 66.441406 C 94.515625 66.542969 93.066406 63.609375 94.285156 59.636719 C 94.898438 57.632812 95.832031 55.546875 97.65625 54.519531 C 102.257812 51.925781 103.410156 47.519531 104.417969 42.914062 C 105.59375 37.53125 106.808594 32.15625 108.0625 26.792969 C 108.628906 24.285156 108.890625 21.742188 108.847656 19.171875 C 108.886719 17.757812 108.429688 16.53125 107.476562 15.484375 C 104.824219 12.671875 104.757812 9.414062 106.238281 6.113281 C 107.59375 3.03125 110.351562 1.785156 113.566406 1.699219 C 118.828125 1.585938 124.089844 1.671875 129.351562 1.671875 Z M 129.347656 1.699219 " fill-opacity="1" fill-rule="nonzero"/><path fill="#228b3c" d="M 179.007812 67.285156 C 165.449219 68.347656 153.992188 55.488281 154.855469 41.148438 C 155.5 30.414062 159.636719 21.117188 167.015625 13.265625 C 171.535156 8.457031 176.539062 4.359375 182.835938 2.074219 C 189.460938 -0.335938 196.054688 -0.761719 202.714844 2.035156 C 204.660156 2.847656 206.65625 3.421875 208.953125 2.871094 C 211.992188 2.136719 214.214844 3.445312 215.46875 6.230469 C 217.894531 11.53125 217.773438 22.335938 211.652344 27.597656 C 207.679688 31.011719 201.664062 31.4375 198.957031 25.132812 C 198.21875 23.261719 197.355469 21.445312 196.371094 19.691406 C 196.066406 19.1875 195.707031 18.722656 195.296875 18.300781 C 194.886719 17.878906 194.433594 17.507812 193.941406 17.183594 C 193.445312 16.863281 192.921875 16.601562 192.371094 16.398438 C 191.816406 16.195312 191.25 16.054688 190.664062 15.976562 C 190.082031 15.902344 189.496094 15.890625 188.910156 15.945312 C 188.324219 16 187.75 16.121094 187.191406 16.304688 C 186.628906 16.488281 186.097656 16.734375 185.59375 17.035156 C 185.085938 17.339844 184.621094 17.695312 184.199219 18.105469 C 180.925781 21.171875 180.144531 25.292969 179.714844 29.464844 C 179.46875 31.894531 179.46875 34.320312 179.714844 36.75 C 180.21875 41.925781 184.183594 48.679688 191.375 47.875 C 194.332031 47.546875 196.558594 45.738281 198.882812 44.15625 C 201.011719 42.703125 203.101562 41.253906 205.855469 41.371094 C 207.761719 41.453125 209.410156 42.804688 209.597656 44.65625 C 210.230469 50.796875 207.238281 57.351562 201.886719 60.0625 C 196.777344 62.644531 191.992188 66.285156 185.914062 66.84375 C 183.710938 67.03125 181.507812 67.175781 179.007812 67.285156 Z M 179.007812 67.285156 " fill-opacity="1" fill-rule="nonzero"/><path fill="#228b3c" d="M 336.054688 162.800781 C 336.117188 163.75 336.71875 164.21875 337.226562 164.734375 C 340.253906 167.824219 340.285156 171.617188 339.65625 175.496094 C 339.375 177.167969 338.070312 178.175781 336.640625 178.820312 C 335.207031 179.464844 335.332031 180.253906 336.1875 181.25 C 336.796875 181.964844 337.441406 182.664062 338.011719 183.410156 C 341.285156 187.707031 340.625 194.109375 336.65625 196.996094 C 335.835938 197.617188 334.925781 198.03125 333.921875 198.242188 C 332.917969 198.457031 331.917969 198.445312 330.921875 198.210938 C 325.199219 196.996094 319.476562 195.761719 313.757812 194.511719 C 313.097656 194.335938 312.433594 194.34375 311.777344 194.535156 C 306.648438 196.15625 302.351562 193.339844 301.996094 188.027344 C 301.863281 185.394531 301.863281 182.765625 301.996094 180.136719 C 302.023438 179.347656 302.214844 178.597656 302.566406 177.890625 C 302.921875 177.183594 303.40625 176.582031 304.019531 176.085938 C 304.667969 175.550781 304.78125 175.167969 304.203125 174.46875 C 302.320312 172.234375 301.773438 169.609375 301.921875 166.726562 C 302.023438 164.980469 301.992188 163.222656 301.921875 161.464844 C 301.878906 160.679688 302.011719 159.921875 302.3125 159.195312 C 302.613281 158.46875 303.054688 157.84375 303.636719 157.316406 C 304.226562 156.757812 304.574219 156.210938 303.921875 155.429688 C 302.105469 153.277344 301.785156 150.71875 301.894531 148.019531 C 301.980469 145.996094 301.894531 143.972656 301.929688 141.949219 C 301.996094 138.75 304.089844 137.019531 307.117188 137.75 C 308.8125 138.15625 310.496094 138.738281 311.785156 140.023438 C 312.570312 140.824219 313.480469 141.453125 314.507812 141.910156 C 315.53125 142.367188 316.605469 142.621094 317.730469 142.667969 C 320.460938 142.871094 322.992188 144.316406 325.824219 144.289062 C 326.980469 144.316406 328.089844 144.109375 329.160156 143.671875 C 331.792969 142.5 333.347656 142.640625 335.0625 144.820312 C 338.703125 149.441406 340.398438 154.75 339.917969 160.648438 C 339.710938 162.992188 337.714844 162.738281 336.054688 162.800781 Z M 312.019531 176.851562 C 312.679688 177.664062 313.144531 178.558594 314.085938 178.769531 C 317.667969 179.578125 321.226562 180.507812 324.894531 180.875 C 325.636719 180.953125 326.542969 180.929688 326.8125 180.140625 C 327.136719 179.183594 326.21875 178.734375 325.546875 178.367188 C 323.117188 177.027344 320.355469 176.8125 317.683594 176.472656 C 315.882812 176.242188 313.984375 176.132812 312.019531 176.851562 Z M 310.898438 158.273438 C 311.261719 158.847656 311.734375 159.308594 312.316406 159.65625 C 312.898438 160.003906 313.527344 160.199219 314.203125 160.246094 C 315.890625 160.382812 317.496094 160.898438 319.152344 161.125 C 321.078125 161.390625 322.914062 162.238281 324.910156 162.042969 C 325.480469 161.988281 326.296875 162.234375 326.46875 161.484375 C 326.664062 160.644531 325.910156 160.433594 325.230469 160.226562 C 322.523438 159.417969 319.730469 158.988281 316.972656 158.390625 C 315.011719 157.96875 313.089844 157.28125 310.898438 158.273438 Z M 310.898438 158.273438 " fill-opacity="1" fill-rule="nonzero"/><path fill="#228b3c" d="M 301.945312 117.242188 C 301.945312 115.488281 301.945312 113.734375 301.945312 111.976562 C 301.933594 110.957031 302.09375 109.960938 302.421875 108.992188 C 303.039062 107.199219 303.925781 105.605469 306.039062 105.375 C 307.988281 105.160156 310.597656 106.914062 311.363281 108.742188 C 311.59375 109.292969 311.417969 110.246094 312.445312 110.171875 C 313.597656 110.089844 313.253906 109.105469 313.34375 108.457031 C 313.65625 105.292969 313.695312 102.128906 313.460938 98.960938 C 313.421875 98.320312 313.527344 97.367188 312.515625 97.15625 C 311.503906 96.945312 311.535156 97.875 311.222656 98.394531 C 310.125 100.226562 308.386719 99.757812 306.886719 99.414062 C 303.863281 98.722656 302.5 96.308594 302.121094 93.519531 C 301.644531 90.023438 301.644531 86.527344 302.121094 83.03125 C 302.632812 79.421875 305.792969 78.222656 308.960938 80.152344 C 310.144531 80.863281 311.074219 81.824219 311.746094 83.03125 C 313.285156 85.867188 315.613281 87.785156 318.339844 89.378906 C 324.261719 92.839844 330.175781 96.320312 336.019531 99.90625 C 339.484375 102.03125 343.226562 103.453125 346.949219 105.03125 C 353.234375 107.699219 354.71875 112.339844 352.804688 117.933594 C 352.324219 119.335938 351.238281 120.269531 349.941406 120.9375 C 345.085938 123.449219 339.824219 124.535156 334.523438 125.484375 C 327.964844 126.652344 321.398438 127.734375 314.839844 128.878906 C 314.332031 128.945312 313.867188 129.125 313.449219 129.417969 C 313.027344 129.710938 312.699219 130.082031 312.460938 130.535156 C 310.769531 133.59375 306.714844 133.738281 304.515625 130.863281 C 302.71875 128.523438 302.273438 125.714844 302.007812 122.902344 C 301.808594 121.035156 301.945312 119.132812 301.945312 117.242188 Z M 324.554688 106.6875 C 324.554688 109.96875 324.554688 109.980469 327.691406 109.488281 C 328.546875 109.347656 329.398438 109.164062 330.234375 108.933594 C 330.734375 108.800781 331.371094 108.699219 331.421875 108.039062 C 331.464844 107.507812 330.992188 107.261719 330.589844 107.003906 C 329.628906 106.390625 328.710938 105.710938 327.71875 105.160156 C 326.867188 104.6875 325.960938 103.648438 325.0625 104.074219 C 324.035156 104.5625 324.742188 105.902344 324.554688 106.6875 Z M 324.554688 106.6875 " fill-opacity="1" fill-rule="nonzero"/><path fill="#228b3c" d="M 340.636719 362.324219 C 340.507812 365.386719 340.046875 369.269531 337.128906 372.445312 C 335.105469 374.667969 332.566406 375.28125 329.78125 374.753906 C 325.367188 373.945312 320.976562 372.980469 316.585938 372.050781 C 315.570312 371.835938 314.933594 371.890625 314.28125 372.964844 C 313.179688 374.773438 311.292969 374.222656 309.722656 373.75 C 305.816406 372.558594 302.132812 367.246094 301.921875 362.820312 C 301.804688 360.34375 301.78125 357.996094 304.230469 356.386719 C 305.472656 355.574219 304.414062 354.5 304.007812 353.714844 C 302.925781 351.601562 301.960938 349.523438 301.925781 347.058594 C 301.828125 340.03125 308.453125 335.246094 315.503906 338.585938 C 321.867188 341.601562 325.101562 347.085938 325.34375 354.148438 C 325.492188 358.480469 325.566406 358.683594 329.925781 359.003906 C 330.464844 359.046875 331.003906 359.046875 331.542969 359.003906 C 332.652344 358.910156 332.914062 358.332031 332.4375 357.347656 C 332.035156 356.476562 331.300781 355.859375 330.648438 355.175781 C 329.179688 353.621094 327.472656 352.292969 326.535156 350.253906 C 325.726562 348.503906 325.089844 346.867188 326.632812 345.230469 C 328.179688 343.589844 330.09375 343.851562 331.894531 344.417969 C 334.617188 345.253906 336.347656 347.335938 337.683594 349.75 C 339.65625 353.34375 340.488281 357.273438 340.636719 362.324219 Z M 313.445312 352.894531 C 313.0625 353.207031 311.917969 352.597656 311.753906 353.761719 C 311.675781 354.347656 311.597656 355.148438 312.527344 355.382812 C 313.824219 355.695312 315.097656 356.078125 316.398438 356.351562 C 316.964844 356.472656 317.652344 356.523438 317.898438 355.75 C 317.988281 355.445312 317.964844 355.148438 317.832031 354.859375 C 317.695312 354.570312 317.484375 354.359375 317.191406 354.230469 C 316.109375 353.605469 315.054688 352.828125 313.445312 352.894531 Z M 313.445312 352.894531 " fill-opacity="1" fill-rule="nonzero"/><path fill="#228b3c" d="M 314.40625 50.207031 C 313.96875 50.207031 313.027344 50.207031 312.082031 50.207031 C 311.304688 50.207031 310.792969 49.859375 310.835938 48.992188 C 310.929688 47.089844 309.898438 47.855469 309.117188 48.316406 C 307.160156 49.472656 305.140625 50.339844 302.808594 49.9375 C 298.558594 49.179688 295.117188 45.21875 294.710938 40.527344 C 293.902344 31.652344 297.726562 25.019531 304.863281 20.136719 C 307.882812 18.066406 311.253906 17.40625 314.871094 18.652344 C 315.40625 18.832031 316.292969 19.636719 316.761719 18.507812 C 317.140625 17.609375 316.433594 17.335938 315.769531 16.890625 C 314.503906 16.078125 314.554688 14.035156 315.730469 12.574219 C 316.902344 11.113281 318.457031 10.386719 320.074219 9.738281 C 322.902344 8.59375 325.835938 7.898438 328.875 7.652344 C 331.136719 7.464844 332.113281 8.339844 331.789062 10.597656 C 331.386719 13.453125 330.679688 16.265625 330.066406 19.101562 C 328.796875 24.945312 327.496094 30.785156 326.222656 36.625 C 325.910156 38.046875 325.9375 39.292969 327.03125 40.550781 C 328.75 42.511719 328.050781 45.488281 325.539062 47.152344 C 322.339844 49.21875 318.835938 50.492188 314.40625 50.207031 Z M 308.421875 37.355469 C 308.386719 37.757812 308.386719 38.164062 308.421875 38.570312 C 308.5625 39.378906 308.703125 40.1875 309.667969 40.445312 C 310.628906 40.707031 311.222656 40.109375 311.726562 39.480469 C 312.035156 39.035156 312.273438 38.5625 312.449219 38.050781 C 313.730469 34.921875 314.03125 31.542969 314.875 28.300781 C 315.019531 27.746094 315.171875 27.085938 314.507812 26.683594 C 313.917969 26.316406 313.351562 26.582031 312.777344 26.792969 C 312.078125 27.097656 311.546875 27.585938 311.183594 28.257812 C 309.324219 31 308.855469 34.179688 308.421875 37.355469 Z M 308.421875 37.355469 " fill-opacity="1" fill-rule="nonzero"/><path fill="#228b3c" d="M 301.914062 315.097656 C 301.101562 306.097656 309.199219 301.484375 315.988281 301.289062 C 326.109375 300.996094 336.085938 308.449219 339.234375 318.421875 C 340.703125 323.066406 341.136719 327.613281 338.960938 332.183594 C 336.578125 337.179688 332.316406 338.804688 327.277344 336.359375 C 323.929688 334.738281 321.292969 332.445312 321.339844 328.261719 C 321.371094 325.582031 322.71875 323.808594 325.304688 323.160156 C 326.722656 322.808594 328.609375 322.710938 328.484375 320.78125 C 328.367188 318.9375 326.488281 318.53125 324.992188 318.285156 C 323.582031 318.070312 322.171875 318.078125 320.765625 318.316406 C 317.296875 318.898438 315.707031 321.757812 316.839844 325.089844 C 317.316406 326.488281 317.878906 327.863281 318.28125 329.289062 C 319.027344 331.9375 317.875 333.46875 315.15625 333.613281 C 311.15625 333.828125 308.273438 331.886719 306.222656 328.71875 C 303.5625 324.589844 301.660156 320.164062 301.914062 315.097656 Z M 301.914062 315.097656 " fill-opacity="1" fill-rule="nonzero"/><path fill="#228b3c" d="M 340.019531 221.84375 C 340.722656 230.597656 331.984375 237.761719 322.125 233.421875 C 319.695312 232.351562 318.371094 230.523438 318.429688 227.714844 C 318.515625 223.875 318.457031 220.023438 318.429688 216.183594 C 318.429688 214.433594 317.898438 214.066406 316.203125 214.5625 C 313.800781 215.285156 312.292969 218.167969 313.136719 220.773438 C 313.671875 222.425781 314.554688 223.964844 315.160156 225.59375 C 315.683594 226.984375 316.234375 228.558594 314.886719 229.734375 C 313.539062 230.90625 311.957031 230.75 310.335938 230.070312 C 306.140625 228.3125 304.296875 224.644531 302.855469 220.757812 C 301.082031 215.976562 300.347656 211.128906 302.878906 206.292969 C 305.414062 201.453125 309.761719 199.664062 314.808594 199.246094 C 326.070312 198.300781 337.183594 207.246094 339.730469 218.210938 C 340.03125 219.386719 339.941406 220.632812 340.019531 221.84375 Z M 326.820312 218.65625 C 326.820312 220.992188 327.515625 221.851562 329.347656 221.855469 C 330.804688 221.855469 331.867188 221.339844 331.910156 219.683594 C 331.960938 217.835938 330.445312 216.660156 328.160156 216.625 C 326.445312 216.59375 326.945312 217.847656 326.820312 218.65625 Z M 326.820312 218.65625 " fill-opacity="1" fill-rule="nonzero"/><path fill="#228b3c" d="M 301.945312 245.007812 C 302.042969 243.726562 301.746094 241.699219 302.15625 239.695312 C 303.234375 234.332031 306.183594 232.910156 311 235.433594 C 311.535156 235.710938 312.171875 235.980469 312.488281 236.441406 C 315.128906 240.308594 319.398438 240.488281 323.367188 241.273438 C 325.324219 241.660156 327.296875 242.351562 329.035156 240.199219 C 330.078125 238.910156 332.753906 239.609375 334.363281 240.933594 C 337.328125 243.363281 338.15625 246.867188 339.164062 250.28125 C 339.820312 252.496094 339.722656 254.8125 340.019531 257.0625 C 340.28125 259.085938 337.914062 260.246094 338.609375 261.863281 C 339.339844 263.5625 340.015625 265.101562 339.984375 267.011719 C 339.898438 272.105469 337.320312 274.628906 332.203125 274.425781 C 327.609375 274.246094 322.085938 269.828125 321.03125 265.488281 C 320.3125 262.523438 320.996094 260.628906 323.460938 258.832031 C 323.765625 258.609375 324.355469 258.503906 324.101562 258.023438 C 323.832031 257.710938 323.496094 257.53125 323.089844 257.476562 C 320.789062 256.972656 318.472656 256.546875 316.183594 256.023438 C 315.65625 255.871094 315.128906 255.871094 314.601562 256.03125 C 314.078125 256.191406 313.636719 256.480469 313.28125 256.902344 C 309.675781 260.722656 304.414062 259.417969 302.757812 254.359375 C 301.855469 251.546875 301.902344 248.652344 301.945312 245.007812 Z M 301.945312 245.007812 " fill-opacity="1" fill-rule="nonzero"/><path fill="#228b3c" d="M 301.945312 284.449219 C 302.023438 282.707031 301.792969 280.949219 302.179688 279.210938 C 303.464844 273.472656 307.789062 271.855469 311.828125 276.0625 C 315.867188 280.269531 320.929688 279.789062 325.796875 280.640625 C 326.394531 280.746094 326.761719 280.304688 327.171875 279.9375 C 329.359375 277.972656 331.671875 278.015625 333.78125 280.019531 C 335.316406 281.476562 336.613281 283.101562 337.289062 285.128906 C 338.632812 289.054688 340.527344 292.824219 340.460938 297.132812 C 340.421875 299.894531 339.605469 300.664062 336.847656 300.085938 C 331.777344 299.019531 326.726562 297.824219 321.675781 296.734375 C 319.511719 296.261719 317.320312 295.890625 315.136719 295.519531 C 314.171875 295.320312 313.265625 295.476562 312.421875 295.988281 C 308.246094 298.484375 304.242188 296.917969 302.757812 292.265625 C 301.945312 289.710938 301.851562 287.109375 301.945312 284.449219 Z M 301.945312 284.449219 " fill-opacity="1" fill-rule="nonzero"/><g clip-path="url(#32f520a7ac)"><path fill="#228b3c" d="M 45.3125 229.550781 C 45.3125 231.230469 45.496094 232.941406 44.367188 234.410156 C 43.308594 235.789062 42.058594 236.027344 41.011719 234.660156 C 39.671875 232.941406 37.808594 232.503906 36 232.457031 C 31.578125 232.371094 27.125 231.894531 22.71875 232.972656 C 21.332031 233.3125 20.265625 233.835938 19.386719 234.996094 C 17.855469 237.019531 15.796875 236.777344 15.242188 234.347656 C 14.4375 230.835938 13.855469 227.195312 16.664062 224.019531 C 19.609375 220.691406 22.828125 217.605469 25.523438 214.058594 C 25.875 213.648438 26.203125 213.222656 26.507812 212.773438 C 27.441406 211.183594 27.035156 210.3125 25.1875 210.308594 C 22.894531 210.308594 20.542969 209.902344 18.761719 212.226562 C 17.566406 213.796875 15.34375 213.035156 14.972656 211.011719 C 14.449219 208.460938 14.496094 205.921875 15.113281 203.394531 C 15.402344 202.300781 15.992188 201.324219 17.117188 201.054688 C 18.332031 200.765625 18.9375 201.769531 19.410156 202.648438 C 20.144531 204.011719 21.367188 204.203125 22.675781 204.214844 C 28.070312 204.269531 33.460938 204.289062 38.867188 204.335938 C 40.210938 204.335938 41.554688 204.335938 42.871094 204.742188 C 45.457031 205.550781 46.03125 207.171875 44.246094 209.195312 C 40.578125 213.324219 36.824219 217.371094 33.132812 221.480469 C 32.160156 222.558594 30.601562 223.667969 31.304688 225.226562 C 31.949219 226.675781 33.773438 226.238281 35.136719 226.242188 C 37.398438 226.242188 39.628906 226.355469 41.332031 224.171875 C 42.347656 222.867188 43.660156 223.695312 44.507812 224.863281 C 45.523438 226.28125 45.292969 227.941406 45.3125 229.550781 Z M 45.3125 229.550781 " fill-opacity="1" fill-rule="nonzero"/></g><g clip-path="url(#54f883ca57)"><path fill="#228b3c" d="M 350.085938 36.167969 C 348.402344 36.167969 346.714844 36.21875 345.035156 36.167969 C 343.609375 36.101562 343.464844 36.882812 343.679688 37.957031 C 344.054688 39.832031 346.265625 41.195312 348.398438 40.824219 C 349.585938 40.566406 350.714844 40.152344 351.785156 39.578125 C 353.261719 38.871094 354.996094 38.292969 356.285156 39.710938 C 357.578125 41.128906 356.777344 42.804688 355.800781 44.128906 C 352.382812 48.753906 347.546875 50.171875 342.039062 50.292969 C 336.234375 50.417969 332.671875 46.851562 331.515625 42.355469 C 330.546875 38.539062 330.644531 34.660156 332.324219 30.917969 C 335.292969 24.363281 340.144531 20.085938 347.144531 18.367188 C 352.539062 17.039062 358.414062 20.101562 359.824219 25.066406 C 360.21875 26.371094 360.378906 27.699219 360.300781 29.058594 C 360.222656 30.417969 359.914062 31.722656 359.375 32.972656 C 358.417969 35.140625 356.835938 36.375 354.3125 36.1875 C 352.917969 36.082031 351.496094 36.167969 350.085938 36.167969 Z M 346.871094 29.230469 C 348.671875 29.316406 349.753906 28.796875 349.675781 27.003906 C 349.632812 25.992188 349.359375 25.140625 348.058594 25.179688 C 346.84375 25.222656 345.34375 26.839844 345.34375 28.230469 C 345.34375 29.523438 346.382812 29.113281 346.871094 29.230469 Z M 346.871094 29.230469 " fill-opacity="1" fill-rule="nonzero"/></g><g clip-path="url(#155b3e5112)"><path fill="#228b3c" d="M 30.769531 254.226562 C 38.886719 253.222656 45.273438 262.292969 45.378906 269.066406 C 45.457031 273.992188 44.382812 278.179688 40.863281 281.921875 C 33.195312 290.070312 20.480469 286.542969 16.332031 277.800781 C 11.957031 268.585938 16.199219 257.996094 25.699219 254.699219 C 27.292969 254.148438 28.894531 254.355469 30.769531 254.226562 Z M 26.125 275.703125 C 27.164062 275.84375 28.476562 275.4375 29.792969 275.207031 C 32.625 274.71875 35.1875 273.613281 37.484375 271.882812 C 37.832031 271.644531 38.136719 271.355469 38.394531 271.019531 C 38.652344 270.683594 38.851562 270.3125 38.992188 269.914062 C 39.128906 269.511719 39.203125 269.097656 39.207031 268.675781 C 39.214844 268.25 39.152344 267.835938 39.023438 267.429688 C 38.945312 267.0625 38.808594 266.71875 38.613281 266.398438 C 38.417969 266.074219 38.171875 265.796875 37.882812 265.554688 C 37.59375 265.316406 37.273438 265.128906 36.921875 265 C 36.566406 264.867188 36.203125 264.796875 35.828125 264.789062 C 31.234375 264.441406 27.015625 265.71875 23.222656 268.234375 C 21.027344 269.691406 20.359375 271.570312 21.082031 273.394531 C 21.945312 275.527344 23.851562 275.675781 26.125 275.703125 Z M 26.125 275.703125 " fill-opacity="1" fill-rule="nonzero"/></g><g clip-path="url(#984139cdb1)"><path fill="#228b3c" d="M 45.375 167.65625 C 45.78125 174.132812 40.878906 182.425781 30.992188 183.589844 C 25.460938 184.238281 17.675781 180.28125 15.355469 172.339844 C 14.382812 169.171875 14.320312 165.984375 15.167969 162.78125 C 15.542969 161.265625 15.644531 159.734375 15.480469 158.1875 C 15.292969 155.757812 16.738281 154.179688 19.699219 153.386719 C 22.054688 152.765625 24.28125 153.601562 25.316406 155.46875 C 25.984375 156.683594 25.625 157.699219 24.796875 158.601562 C 23.972656 159.503906 22.960938 160.382812 22.0625 161.300781 C 19.917969 163.480469 19.257812 166.101562 20.378906 168.914062 C 21.453125 171.605469 23.859375 172.398438 26.582031 172.628906 C 30.714844 172.976562 34.273438 171.722656 37.410156 169.105469 C 38.632812 168.046875 39.367188 166.714844 39.609375 165.117188 C 39.875 163.675781 38.550781 162.09375 37.078125 162.003906 C 35.605469 161.914062 34.816406 162.722656 34.816406 164.195312 C 34.789062 165.445312 34.203125 166.351562 32.996094 166.503906 C 31.851562 166.648438 31.117188 165.769531 30.726562 164.804688 C 29.894531 162.792969 29.441406 160.695312 29.375 158.519531 C 29.304688 156.339844 29.621094 154.21875 30.324219 152.15625 C 30.726562 150.980469 31.457031 150.085938 32.714844 149.972656 C 33.90625 149.871094 34.476562 150.816406 34.882812 151.777344 C 35.097656 152.386719 35.511719 152.792969 36.125 152.992188 C 42.8125 155.269531 45.441406 160.238281 45.375 167.65625 Z M 45.375 167.65625 " fill-opacity="1" fill-rule="nonzero"/></g><path fill="#228b3c" d="M 353.808594 236.441406 C 353.222656 236.519531 352.648438 236.460938 352.085938 236.273438 C 351.527344 236.082031 351.039062 235.777344 350.617188 235.359375 C 346.570312 231.660156 343.4375 227.359375 342.074219 221.96875 C 341.152344 218.324219 343.5625 215.207031 347 215.386719 C 347.839844 215.414062 348.570312 215.714844 349.1875 216.285156 C 353.4375 220.140625 356.640625 224.730469 358.804688 230.046875 C 360.128906 233.265625 357.632812 236.476562 353.808594 236.441406 Z M 353.808594 236.441406 " fill-opacity="1" fill-rule="nonzero"/><path fill="#228b3c" d="M 340.183594 288.730469 C 340.128906 287.644531 340.226562 286.574219 340.480469 285.519531 C 341.570312 281.84375 345.058594 280.722656 348.082031 283.089844 C 352.394531 286.46875 354.53125 293.242188 352.96875 298.609375 C 351.933594 302.171875 348.632812 303.214844 345.714844 300.789062 C 341.964844 297.675781 340.179688 293.585938 340.183594 288.730469 Z M 340.183594 288.730469 " fill-opacity="1" fill-rule="nonzero"/><path fill="#228b3c" d="M 45.339844 244.917969 C 45.363281 247.933594 43.316406 250.09375 40.4375 250.085938 C 37.785156 250.085938 35.855469 247.941406 35.648438 245.199219 C 35.386719 241.710938 38.265625 239.933594 40.464844 239.890625 C 42.910156 239.832031 45.800781 242.28125 45.339844 244.917969 Z M 45.339844 244.917969 " fill-opacity="1" fill-rule="nonzero"/><path fill="#228b3c" d="M 45.339844 141.847656 C 45.316406 144.585938 43.21875 146.582031 40.402344 146.554688 C 37.585938 146.527344 35.667969 144.464844 35.695312 141.621094 C 35.71875 138.773438 37.53125 136.847656 40.050781 136.847656 C 43.316406 136.851562 45.339844 138.792969 45.339844 141.847656 Z M 45.339844 141.847656 " fill-opacity="1" fill-rule="nonzero"/><path fill="#228b3c" d="M 45.339844 192.628906 C 45.339844 195.429688 43.375 197.511719 40.648438 197.554688 C 37.753906 197.601562 35.703125 195.585938 35.695312 192.699219 C 35.683594 192.375 35.703125 192.054688 35.757812 191.738281 C 35.808594 191.417969 35.894531 191.109375 36.007812 190.808594 C 36.125 190.507812 36.265625 190.21875 36.4375 189.945312 C 36.613281 189.675781 36.808594 189.421875 37.03125 189.1875 C 37.257812 188.957031 37.5 188.746094 37.765625 188.5625 C 38.03125 188.378906 38.308594 188.222656 38.605469 188.097656 C 38.902344 187.96875 39.207031 187.871094 39.523438 187.804688 C 39.839844 187.738281 40.160156 187.703125 40.480469 187.703125 C 40.804688 187.699219 41.125 187.730469 41.441406 187.792969 C 41.757812 187.855469 42.0625 187.945312 42.363281 188.070312 C 42.660156 188.191406 42.941406 188.34375 43.210938 188.523438 C 43.476562 188.703125 43.722656 188.910156 43.949219 189.140625 C 44.175781 189.371094 44.378906 189.617188 44.554688 189.890625 C 44.730469 190.160156 44.878906 190.445312 45 190.742188 C 45.117188 191.042969 45.207031 191.351562 45.261719 191.667969 C 45.320312 191.988281 45.347656 192.308594 45.339844 192.628906 Z M 45.339844 192.628906 " fill-opacity="1" fill-rule="nonzero"/><path fill="#228b3c" d="M 95.933594 97.824219 C 94.191406 97.511719 92.316406 97.5 91.640625 95.589844 C 90.964844 93.679688 92.027344 92.242188 93.605469 91.1875 C 96.355469 89.355469 99.335938 88.238281 102.699219 88.546875 C 104.082031 88.671875 105.371094 89.148438 105.882812 90.625 C 106.398438 92.105469 105.605469 93.183594 104.617188 94.191406 C 102.203125 96.65625 99.054688 97.285156 95.933594 97.824219 Z M 95.933594 97.824219 " fill-opacity="1" fill-rule="nonzero"/></svg>